# xmcd
#
# Track frame offsets:
#	150
#	17390
#	34772
#	52757
#	71035
#	91210
#	107617
#	125147
#	143857
#	162835
#	181765
#
# Disc length: 2672 seconds
#
# Revision: 1
# Processed by: cddbd v1.5.2PL0 Copyright (c) Steve Scherf et al.
# Submitted via: EasyCDDAExtractor 15.3.0.1
#
DISCID=870a6e0b
DTITLE=Kiara - Luna De Plata
DYEAR=1995
DGENRE=Latin
TTITLE0=Calido
TTITLE1=Mujer Fatal
TTITLE2=Tocame (Talk To Me)
TTITLE3=Nadie Como Tu
TTITLE4=La Chanson D' Amour
TTITLE5=Hey, Hey
TTITLE6=Luna De Plata (My One And Only)
TTITLE7=Ella Tambien Me Hablo
TTITLE8=Mil Voces
TTITLE9=Se Me Ha Olvidado Perdonar
TTITLE10=No
EXTD=
EXTT0=
EXTT1=
EXTT2=
EXTT3=
EXTT4=
EXTT5=
EXTT6=
EXTT7=
EXTT8=
EXTT9=
EXTT10=
PLAYORDER=
